# xmcd
#
# Track frame offsets:
#	150
#	16050
#	35057
#	55345
#	69962
#	93103
#	114987
#	131646
#	146582
#
# Disc length: 2163 seconds
#
# Revision: 1
# Processed by: cddbd v1.5.2PL0 Copyright (c) Steve Scherf et al.
# Submitted via: audiograbber 1.83.01
#
DISCID=72087109
DTITLE=Magic Red - Clarity
DYEAR=2006
DGENRE=Blues
TTITLE0=Slip and Slide
TTITLE1=Why Cry
TTITLE2=Pitch
TTITLE3=The Clunk
TTITLE4=Turning Home
TTITLE5=Desert Run
TTITLE6=Fifteen Years
TTITLE7=Ten Pound Predator
TTITLE8=Clarity
EXTD=
EXTT0=
EXTT1=
EXTT2=
EXTT3=
EXTT4=
EXTT5=
EXTT6=
EXTT7=
EXTT8=
PLAYORDER=
